# Blender 4.3.0
# www.blender.org
o Rizwan's_Pizza_Seperator
v -0.000750 0.011000 0.100000
v 0.000750 0.011000 0.100000
v -0.000750 -0.011000 0.100000
v 0.000750 -0.011000 0.100000
v -0.000750 0.011000 0.013000
v 0.000750 0.011000 0.013000
v -0.000750 0.001040 0.015000
v -0.000750 -0.013000 0.013000
v 0.000750 -0.013000 0.013000
v 0.000750 0.001040 0.015000
v 0.000750 -0.013000 0.015000
v 0.000750 0.001040 0.100000
v -0.000750 0.001040 0.100000
v 0.000750 0.013000 0.015000
v -0.000750 -0.013000 0.015000
v -0.000750 0.001040 0.013000
v 0.000750 0.001040 0.013000
v -0.000750 0.013000 0.015000
v 0.000925 0.001040 -0.000996
v -0.000925 0.001040 -0.000996
v -0.001326 0.001040 -0.000303
v 0.001804 -0.013000 0.000176
v 0.000926 -0.013000 0.000996
v -0.000750 -0.013000 0.001651
v -0.001054 -0.013000 0.001475
v -0.000399 -0.013000 0.001300
v 0.001054 -0.013000 0.001475
v 0.000750 -0.013000 0.001651
v 0.000399 -0.013000 0.001300
v 0.001325 -0.013000 0.000304
v -0.000400 -0.013000 -0.001300
v 0.001804 0.001040 0.000176
v 0.001804 0.001040 -0.000175
v 0.000751 0.001040 0.001650
v 0.000400 0.001040 0.001300
v -0.001804 -0.013000 -0.000175
v -0.001326 -0.013000 -0.000303
v -0.000751 0.001040 0.001650
v -0.000400 0.001040 0.001300
v -0.001326 0.001040 0.000303
v -0.001804 0.001040 0.000175
v -0.000925 0.001040 0.000996
v -0.001054 0.001040 0.001475
v -0.000750 0.013000 0.098000
v -0.000750 -0.013000 0.098000
v -0.000750 0.001040 0.098000
v 0.000750 0.001040 0.098000
v 0.000750 -0.013000 0.098000
v 0.000750 0.013000 0.098000
v 0.086228 0.011000 0.050650
v 0.086978 0.011000 0.049350
v 0.086228 -0.011000 0.050650
v 0.086978 -0.011000 0.049350
v 0.010883 0.011000 0.007150
v 0.011633 0.011000 0.005850
v 0.012615 0.001040 0.008150
v 0.010883 -0.013000 0.007150
v 0.011633 -0.013000 0.005850
v 0.013365 0.001040 0.006850
v 0.013365 -0.013000 0.006850
v 0.086978 0.001040 0.049350
v 0.086228 0.001040 0.050650
v 0.013365 0.013000 0.006850
v 0.012615 -0.013000 0.008150
v 0.010883 0.001040 0.007150
v 0.011633 0.001040 0.005850
v 0.012615 0.013000 0.008150
v 0.001326 0.001040 0.000303
v 0.001054 0.001040 0.001475
v 0.000925 0.001040 0.000996
v 0.084495 0.013000 0.049650
v 0.084495 -0.013000 0.049650
v 0.084495 0.001040 0.049650
v 0.085245 0.001040 0.048350
v 0.085245 -0.013000 0.048350
v 0.085245 0.013000 0.048350
v 0.086978 0.011000 -0.049350
v 0.086228 0.011000 -0.050650
v 0.086978 -0.011000 -0.049350
v 0.086228 -0.011000 -0.050650
v 0.011633 0.011000 -0.005850
v 0.010883 0.011000 -0.007150
v 0.013365 0.001040 -0.006850
v 0.011633 -0.013000 -0.005850
v 0.010883 -0.013000 -0.007150
v 0.012615 0.001040 -0.008150
v 0.012615 -0.013000 -0.008150
v 0.086228 0.001040 -0.050650
v 0.086978 0.001040 -0.049350
v 0.012615 0.013000 -0.008150
v 0.013365 -0.013000 -0.006850
v 0.011633 0.001040 -0.005850
v 0.010883 0.001040 -0.007150
v 0.013365 0.013000 -0.006850
v 0.001804 -0.013000 -0.000176
v 0.001326 -0.013000 -0.000304
v 0.001054 -0.013000 -0.001475
v 0.000926 -0.013000 -0.000996
v 0.001054 0.001040 -0.001475
v 0.001326 0.001040 -0.000303
v 0.085245 0.013000 -0.048350
v 0.085245 -0.013000 -0.048350
v 0.085245 0.001040 -0.048350
v 0.084495 0.001040 -0.049650
v 0.084495 -0.013000 -0.049650
v 0.084495 0.013000 -0.049650
v 0.000750 0.011000 -0.100000
v -0.000750 0.011000 -0.100000
v 0.000750 -0.011000 -0.100000
v -0.000750 -0.011000 -0.100000
v 0.000750 0.011000 -0.013000
v -0.000750 0.011000 -0.013000
v 0.000750 0.001040 -0.015000
v 0.000750 -0.013000 -0.013000
v -0.000750 -0.013000 -0.013000
v -0.000750 0.001040 -0.015000
v -0.000750 -0.013000 -0.015000
v -0.000750 0.001040 -0.100000
v 0.000750 0.001040 -0.100000
v -0.000750 0.013000 -0.015000
v 0.000750 -0.013000 -0.015000
v 0.000750 0.001040 -0.013000
v -0.000750 0.001040 -0.013000
v 0.000750 0.013000 -0.015000
v 0.000750 -0.013000 -0.001651
v 0.000399 -0.013000 -0.001300
v -0.000750 -0.013000 -0.001651
v -0.000751 0.001040 -0.001650
v -0.000400 0.001040 -0.001300
v 0.000751 0.001040 -0.001650
v 0.000400 0.001040 -0.001300
v 0.000750 0.013000 -0.098000
v 0.000750 -0.013000 -0.098000
v 0.000750 0.001040 -0.098000
v -0.000750 0.001040 -0.098000
v -0.000750 -0.013000 -0.098000
v -0.000750 0.013000 -0.098000
v -0.086228 0.011000 -0.050650
v -0.086978 0.011000 -0.049350
v -0.086228 -0.011000 -0.050650
v -0.086978 -0.011000 -0.049350
v -0.010883 0.011000 -0.007150
v -0.011633 0.011000 -0.005850
v -0.012615 0.001040 -0.008150
v -0.010883 -0.013000 -0.007150
v -0.011633 -0.013000 -0.005850
v -0.013365 0.001040 -0.006850
v -0.013365 -0.013000 -0.006850
v -0.086978 0.001040 -0.049350
v -0.086228 0.001040 -0.050650
v -0.013365 0.013000 -0.006850
v -0.012615 -0.013000 -0.008150
v -0.010883 0.001040 -0.007150
v -0.011633 0.001040 -0.005850
v -0.012615 0.013000 -0.008150
v -0.001054 -0.013000 -0.001475
v -0.000926 -0.013000 -0.000996
v -0.001804 0.001040 -0.000175
v -0.001054 0.001040 -0.001475
v -0.084495 0.013000 -0.049650
v -0.084495 -0.013000 -0.049650
v -0.084495 0.001040 -0.049650
v -0.085246 0.001040 -0.048350
v -0.085246 -0.013000 -0.048350
v -0.085246 0.013000 -0.048350
v -0.086978 0.011000 0.049350
v -0.086228 0.011000 0.050650
v -0.086978 -0.011000 0.049350
v -0.086228 -0.011000 0.050650
v -0.011633 0.011000 0.005850
v -0.010883 0.011000 0.007150
v -0.013365 0.001040 0.006850
v -0.011633 -0.013000 0.005850
v -0.010883 -0.013000 0.007150
v -0.012615 0.001040 0.008150
v -0.012615 -0.013000 0.008150
v -0.086228 0.001040 0.050650
v -0.086978 0.001040 0.049350
v -0.012615 0.013000 0.008150
v -0.013365 -0.013000 0.006850
v -0.011633 0.001040 0.005850
v -0.010883 0.001040 0.007150
v -0.013365 0.013000 0.006850
v -0.001804 -0.013000 0.000176
v -0.001326 -0.013000 0.000304
v -0.000926 -0.013000 0.000996
v -0.085245 0.013000 0.048350
v -0.085245 -0.013000 0.048350
v -0.085245 0.001040 0.048350
v -0.084495 0.001040 0.049650
v -0.084495 -0.013000 0.049650
v -0.084495 0.013000 0.049650
vn -1.0000 -0.0000 -0.0000
vn -0.0000 -0.0000 1.0000
vn 1.0000 -0.0000 -0.0000
vn -0.0000 -1.0000 -0.0000
vn -0.0000 0.7071 -0.7071
vn -0.0000 -0.0000 -1.0000
vn -0.0000 1.0000 -0.0000
vn -0.5000 -0.0000 -0.8660
vn 0.5000 -0.0000 -0.8660
vn 0.5000 -0.0000 0.8660
vn -0.5000 -0.0000 0.8660
vn -0.0000 0.7071 0.7071
vn -0.0000 -0.7071 0.7071
vn 0.8660 -0.0000 0.5000
vn -0.6124 0.7071 -0.3536
vn -0.8660 -0.0000 -0.5000
vn -0.4999 -0.0000 0.8661
vn 0.6124 0.7071 0.3536
vn 0.6124 -0.7071 0.3536
vn 0.8660 -0.0000 -0.5000
vn -0.6124 0.7071 0.3536
vn -0.8660 -0.0000 0.5000
vn 0.6124 0.7071 -0.3536
vn 0.6124 -0.7071 -0.3536
vn -0.0000 -0.7071 -0.7071
vn -0.5001 -0.0000 0.8660
vn -0.6124 -0.7071 -0.3536
vn 0.4999 -0.0000 0.8661
vn -0.6124 0.7071 0.3535
vn -0.6124 -0.7071 0.3535
vt 0.000000 0.005927
vt 0.000000 0.005927
vt 0.000000 0.000000
vt 1.000000 0.000000
vt 1.000000 0.000000
vt 1.000000 0.166667
vt 1.000000 0.166667
vt 1.000000 0.220557
vt 1.000000 0.220557
vt 1.000000 0.163146
vt 1.000000 0.163146
vt 0.000000 0.163146
vt 0.000000 0.166667
vt 0.000000 0.163146
vt 0.000000 0.005927
vt 1.000000 0.005927
vt 1.000000 0.005927
vt 0.766513 0.222222
vt 0.233486 0.222222
vt 0.000000 0.220557
vt 1.000000 0.005927
vt 0.233616 0.222222
vt 0.000000 0.235208
vt 0.000000 0.264792
vt 0.000000 0.277778
vt 0.233487 0.264806
vt 0.766514 0.235194
vt 1.000000 0.222222
vt 1.000000 0.222222
vt 0.766384 0.222222
vt 0.766514 0.222222
vt 0.766254 0.222222
vt 0.233746 0.222222
vt 0.233616 0.235201
vt 0.766384 0.264799
vt 1.000000 0.277778
vt 0.766254 0.264792
vt 0.233746 0.235208
vt 0.233487 0.222222
vt 0.000000 0.220557
vt 0.000000 0.278610
vt 0.000000 0.279443
vt 0.233616 0.277778
vt 1.000000 0.221390
vt 1.000000 0.220557
vt 1.000000 0.221390
vt 0.233486 0.277778
vt 0.000000 0.221390
vt 0.000000 0.222222
vt 0.000000 0.222222
vt 1.000000 0.221390
vt 1.000000 0.279443
vt 1.000000 0.278610
vt 1.000000 0.277778
vt 0.000000 0.279442
vt 0.000000 0.278610
vt 0.000000 0.277778
vt 0.000000 0.221390
vt 0.000000 0.222222
vt 0.233746 0.222222
vt 0.766254 0.222222
s 0
f 46/1/1 45/2/1 3/3/1 13/3/1
f 13/3/2 3/3/2 4/4/2 12/5/2
f 17/6/3 9/7/3 28/8/3 34/9/3
f 10/10/3 11/11/3 9/7/3 17/6/3
f 15/12/4 8/13/4 9/7/4 11/11/4
f 18/12/5 14/11/5 6/7/5 5/13/5
f 14/11/3 10/10/3 17/6/3 6/7/3
f 16/13/6 5/13/6 6/7/6 17/6/6
f 1/3/2 13/3/2 12/5/2 2/4/2
f 16/13/1 8/13/1 15/12/1 7/14/1
f 44/15/1 46/1/1 13/3/1 1/3/1
f 47/16/3 48/17/3 11/11/3 10/10/3
f 34/9/7 35/18/7 39/19/7 38/20/7 16/13/7 17/6/7
f 45/2/4 15/12/4 11/11/4 48/17/4
f 44/15/7 49/21/7 14/11/7 18/12/7
f 49/21/3 47/16/3 10/10/3 14/11/3
f 23/22/4 29/23/4 26/24/4 186/25/4 185/25/4 37/25/4 157/25/4 31/26/4 126/27/4 98/28/4 96/29/4 30/30/4
f 35/31/7 70/32/7 68/33/7 100/34/7 19/35/7 131/36/7 129/36/7 20/36/7 21/36/7 40/37/7 42/38/7 39/39/7
f 5/13/1 16/13/1 7/14/1 18/12/1
f 38/20/1 24/40/1 8/13/1 16/13/1
f 24/41/4 25/42/4 186/43/4 26/25/4
f 27/44/4 28/45/4 29/29/4 23/29/4
f 95/46/4 22/8/4 30/29/4 96/29/4
f 156/41/4 127/42/4 31/47/4 157/25/4
f 32/48/7 33/20/7 100/49/7 68/50/7
f 128/42/7 159/41/7 20/25/7 129/25/7
f 34/9/7 69/51/7 70/29/7 35/29/7
f 125/52/4 97/53/4 98/36/4 126/36/4
f 184/41/4 36/42/4 37/43/4 185/25/4
f 99/53/7 130/52/7 131/54/7 19/36/7
f 158/55/7 41/56/7 40/25/7 21/57/7
f 43/58/7 38/20/7 39/59/7 42/50/7
f 32/8/3 22/8/3 95/29/3 33/29/3
f 156/25/8 159/25/8 128/42/8 127/42/8
f 99/36/9 97/36/9 125/52/9 130/52/9
f 184/25/1 41/25/1 158/55/1 36/42/1
f 27/29/10 69/29/10 34/9/10 28/8/10
f 24/40/11 38/20/11 43/50/11 25/50/11
f 8/13/4 24/40/4 26/60/4 29/61/4 28/8/4 9/7/4
f 2/4/3 12/5/3 47/16/3 49/21/3
f 1/3/12 2/4/12 49/21/12 44/15/12
f 3/3/13 45/2/13 48/17/13 4/4/13
f 12/5/3 4/4/3 48/17/3 47/16/3
f 18/12/1 7/14/1 46/1/1 44/15/1
f 7/14/1 15/12/1 45/2/1 46/1/1
f 73/1/11 72/2/11 52/3/11 62/3/11
f 62/3/14 52/3/14 53/4/14 61/5/14
f 66/6/9 58/7/9 22/8/9 32/9/9
f 59/10/9 60/11/9 58/7/9 66/6/9
f 64/12/4 57/13/4 58/7/4 60/11/4
f 67/12/15 63/11/15 55/7/15 54/13/15
f 63/11/9 59/10/9 66/6/9 55/7/9
f 65/13/16 54/13/16 55/7/16 66/6/16
f 50/3/14 62/3/14 61/5/14 51/4/14
f 65/13/11 57/13/11 64/12/11 56/14/11
f 71/15/11 73/1/11 62/3/11 50/3/11
f 74/16/9 75/17/9 60/11/9 59/10/9
f 32/9/7 68/18/7 70/19/7 69/20/7 65/13/7 66/6/7
f 72/2/4 64/12/4 60/11/4 75/17/4
f 71/15/7 76/21/7 63/11/7 67/12/7
f 76/21/9 74/16/9 59/10/9 63/11/9
f 54/13/11 65/13/11 56/14/11 67/12/11
f 69/20/17 27/40/17 57/13/17 65/13/17
f 57/13/4 27/40/4 23/60/4 30/61/4 22/8/4 58/7/4
f 51/4/9 61/5/9 74/16/9 76/21/9
f 50/3/18 51/4/18 76/21/18 71/15/18
f 52/3/19 72/2/19 75/17/19 53/4/19
f 61/5/9 53/4/9 75/17/9 74/16/9
f 67/12/11 56/14/11 73/1/11 71/15/11
f 56/14/11 64/12/11 72/2/11 73/1/11
f 103/1/10 102/2/10 79/3/10 89/3/10
f 89/3/20 79/3/20 80/4/20 88/5/20
f 93/6/8 85/7/8 97/8/8 99/9/8
f 86/10/8 87/11/8 85/7/8 93/6/8
f 91/12/4 84/13/4 85/7/4 87/11/4
f 94/12/21 90/11/21 82/7/21 81/13/21
f 90/11/8 86/10/8 93/6/8 82/7/8
f 92/13/22 81/13/22 82/7/22 93/6/22
f 77/3/20 89/3/20 88/5/20 78/4/20
f 92/13/10 84/13/10 91/12/10 83/14/10
f 101/15/10 103/1/10 89/3/10 77/3/10
f 104/16/8 105/17/8 87/11/8 86/10/8
f 99/9/7 19/18/7 100/19/7 33/20/7 92/13/7 93/6/7
f 102/2/4 91/12/4 87/11/4 105/17/4
f 101/15/7 106/21/7 90/11/7 94/12/7
f 106/21/8 104/16/8 86/10/8 90/11/8
f 81/13/10 92/13/10 83/14/10 94/12/10
f 33/20/10 95/40/10 84/13/10 92/13/10
f 84/13/4 95/40/4 96/60/4 98/61/4 97/8/4 85/7/4
f 78/4/8 88/5/8 104/16/8 106/21/8
f 77/3/23 78/4/23 106/21/23 101/15/23
f 79/3/24 102/2/24 105/17/24 80/4/24
f 88/5/8 80/4/8 105/17/8 104/16/8
f 94/12/10 83/14/10 103/1/10 101/15/10
f 83/14/10 91/12/10 102/2/10 103/1/10
f 134/1/3 133/2/3 109/3/3 119/3/3
f 119/3/6 109/3/6 110/4/6 118/5/6
f 123/6/1 115/7/1 127/8/1 128/9/1
f 116/10/1 117/11/1 115/7/1 123/6/1
f 121/12/4 114/13/4 115/7/4 117/11/4
f 124/12/12 120/11/12 112/7/12 111/13/12
f 120/11/1 116/10/1 123/6/1 112/7/1
f 122/13/2 111/13/2 112/7/2 123/6/2
f 107/3/6 119/3/6 118/5/6 108/4/6
f 122/13/3 114/13/3 121/12/3 113/14/3
f 132/15/3 134/1/3 119/3/3 107/3/3
f 135/16/1 136/17/1 117/11/1 116/10/1
f 128/9/7 129/18/7 131/19/7 130/20/7 122/13/7 123/6/7
f 133/2/4 121/12/4 117/11/4 136/17/4
f 132/15/7 137/21/7 120/11/7 124/12/7
f 137/21/1 135/16/1 116/10/1 120/11/1
f 111/13/3 122/13/3 113/14/3 124/12/3
f 130/20/3 125/40/3 114/13/3 122/13/3
f 114/13/4 125/40/4 126/60/4 31/61/4 127/8/4 115/7/4
f 108/4/1 118/5/1 135/16/1 137/21/1
f 107/3/5 108/4/5 137/21/5 132/15/5
f 109/3/25 133/2/25 136/17/25 110/4/25
f 118/5/1 110/4/1 136/17/1 135/16/1
f 124/12/3 113/14/3 134/1/3 132/15/3
f 113/14/3 121/12/3 133/2/3 134/1/3
f 162/1/9 161/2/9 140/3/9 150/3/9
f 150/3/16 140/3/16 141/4/16 149/5/16
f 154/6/26 146/7/26 36/8/26 158/9/26
f 147/10/11 148/11/11 146/7/11 154/6/11
f 152/12/4 145/13/4 146/7/4 148/11/4
f 155/12/18 151/11/18 143/7/18 142/13/18
f 151/11/11 147/10/11 154/6/11 143/7/11
f 153/13/14 142/13/14 143/7/14 154/6/14
f 138/3/16 150/3/16 149/5/16 139/4/16
f 153/13/9 145/13/9 152/12/9 144/14/9
f 160/15/9 162/1/9 150/3/9 138/3/9
f 163/16/11 164/17/11 148/11/11 147/10/11
f 158/9/7 21/18/7 20/19/7 159/20/7 153/13/7 154/6/7
f 161/2/4 152/12/4 148/11/4 164/17/4
f 160/15/7 165/21/7 151/11/7 155/12/7
f 165/21/11 163/16/11 147/10/11 151/11/11
f 142/13/9 153/13/9 144/14/9 155/12/9
f 159/20/9 156/40/9 145/13/9 153/13/9
f 145/13/4 156/40/4 157/60/4 37/61/4 36/8/4 146/7/4
f 139/4/11 149/5/11 163/16/11 165/21/11
f 138/3/15 139/4/15 165/21/15 160/15/15
f 140/3/27 161/2/27 164/17/27 141/4/27
f 149/5/11 141/4/11 164/17/11 163/16/11
f 155/12/9 144/14/9 162/1/9 160/15/9
f 144/14/9 152/12/9 161/2/9 162/1/9
f 189/1/8 188/2/8 168/3/8 178/3/8
f 178/3/22 168/3/22 169/4/22 177/5/22
f 182/6/28 174/7/28 25/8/28 43/9/28
f 175/10/10 176/11/10 174/7/10 182/6/10
f 180/12/4 173/13/4 174/7/4 176/11/4
f 183/12/23 179/11/23 171/7/23 170/13/23
f 179/11/10 175/10/10 182/6/10 171/7/10
f 181/13/20 170/13/20 171/7/20 182/6/20
f 166/3/22 178/3/22 177/5/22 167/4/22
f 181/13/8 173/13/8 180/12/8 172/14/8
f 187/15/8 189/1/8 178/3/8 166/3/8
f 190/16/10 191/17/10 176/11/10 175/10/10
f 43/9/7 42/18/7 40/19/7 41/20/7 181/13/7 182/6/7
f 188/2/4 180/12/4 176/11/4 191/17/4
f 187/15/7 192/21/7 179/11/7 183/12/7
f 192/21/10 190/16/10 175/10/10 179/11/10
f 170/13/8 181/13/8 172/14/8 183/12/8
f 41/20/8 184/40/8 173/13/8 181/13/8
f 173/13/4 184/40/4 185/60/4 186/61/4 25/8/4 174/7/4
f 167/4/10 177/5/10 190/16/10 192/21/10
f 166/3/29 167/4/29 192/21/29 187/15/29
f 168/3/30 188/2/30 191/17/30 169/4/30
f 177/5/10 169/4/10 191/17/10 190/16/10
f 183/12/8 172/14/8 189/1/8 187/15/8
f 172/14/8 180/12/8 188/2/8 189/1/8
